<svg width="133" height="40" viewBox="0 0 133 40" fill="none" xmlns="http://www.w3.org/2000/svg">
<path d="M52.8125 19.1367C51.0625 19.1367 49.4219 18.5898 48.3281 17.6055L49.6133 15.8555C50.4609 16.6758 51.6094 17.1406 52.8672 17.1406C54.043 17.1406 54.7266 16.7578 54.7266 16.1016C54.7266 15.4453 53.9336 15.2812 52.7031 14.9258C50.9531 14.4336 48.7383 13.8047 48.7383 11.5625C48.7383 9.64844 50.3516 8.47266 52.8945 8.47266C54.3984 8.47266 55.6836 8.88281 56.8594 9.73047L55.6016 11.4805C54.8359 10.8516 53.8242 10.4961 52.8125 10.4961C51.7461 10.4961 51.0625 10.8789 51.0625 11.4531C51.0625 12.0547 51.8555 12.3555 53.25 12.7383C54.9727 13.2031 57.1055 13.8047 57.1055 15.9375C57.1055 17.9609 55.5195 19.1367 52.8125 19.1367ZM65.7461 17.1133H66.0742V19C65.9102 19.0273 65.6914 19.0547 65.2812 19.0547C64.2695 19.0547 63.7227 18.6719 63.5586 17.8242C62.9844 18.6445 61.918 19.1367 60.7148 19.1367C59.1016 19.1367 58.0352 18.1797 58.0352 16.7578C58.0352 14.625 60.0312 14.2422 61.5625 14.0508C62.4922 13.9414 63.2305 13.8047 63.2305 13.3125C63.2305 12.793 62.6836 12.4375 61.7539 12.4375C60.9062 12.4375 60.1406 12.7656 59.5117 13.3945L58.1992 12.0547C59.1836 11.125 60.4141 10.6602 61.8906 10.6602C64.0234 10.6602 65.2812 11.6992 65.2812 13.4219V16.6484C65.2812 16.9492 65.4453 17.1133 65.7461 17.1133ZM61.207 17.4141C62.3008 17.4141 63.1758 16.7031 63.1758 15.8008V15.0898C62.8477 15.2812 62.3828 15.3633 61.7812 15.4727C60.9336 15.6094 60.1406 15.7461 60.1406 16.5391C60.1406 17.0859 60.5234 17.4141 61.207 17.4141ZM72.5 10.6602C74.25 10.6602 75.4531 11.918 75.4531 13.8047V19H73.2656V14.2969C73.2656 13.1211 72.7188 12.4648 71.7891 12.4648C70.75 12.4648 69.9023 13.2305 69.9023 14.3242V19H67.7148V10.7969H69.6836L69.7656 11.9453C70.3945 11.1523 71.3789 10.6602 72.5 10.6602ZM82.7539 12.6016H80.4023V16.1836C80.4023 16.8945 80.7852 17.1406 81.4414 17.1406C81.9609 17.1406 82.3164 17.1133 82.7539 17.0039V18.9453C82.1523 19.1094 81.5508 19.1641 80.9492 19.1641C79.2266 19.1641 78.2148 18.3438 78.2148 16.7031V12.6016H76.5742V10.7969H78.2148L78.4336 8.60938H80.4023V10.7969H82.7539V12.6016ZM93.418 19.1367C90.3555 19.1367 88.332 17.0312 88.332 13.8047C88.332 10.6055 90.3828 8.47266 93.418 8.47266C95.6602 8.47266 97.3008 9.59375 97.9023 11.5078L95.6875 12.2734C95.3047 11.0703 94.5117 10.4414 93.3633 10.4414C91.75 10.4414 90.7383 11.7266 90.7383 13.8047C90.7383 15.8828 91.7227 17.168 93.3633 17.168C94.5117 17.168 95.3047 16.5391 95.6875 15.3359L97.9023 16.1016C97.3281 18.0156 95.6602 19.1367 93.418 19.1367ZM104.273 10.6875C104.52 10.6875 104.766 10.7148 105.012 10.7695L104.984 12.793C104.52 12.7383 104.055 12.7109 103.672 12.7109C102.469 12.7109 101.676 13.2852 101.676 14.543V19H99.4883V10.7969H101.457L101.566 12.0273C102.113 11.207 103.098 10.6875 104.273 10.6875ZM109.742 19.1367C107.145 19.1367 105.449 17.4688 105.449 14.8984C105.449 12.3555 107.172 10.6602 109.742 10.6602C112.34 10.6602 114.035 12.3281 114.035 14.8984C114.035 17.4414 112.312 19.1367 109.742 19.1367ZM109.742 17.332C111 17.332 111.793 16.4297 111.793 14.8984C111.793 13.3672 111 12.4648 109.742 12.4648C108.484 12.4648 107.691 13.3672 107.691 14.8984C107.691 16.4297 108.484 17.332 109.742 17.332ZM115.758 9.75781V7.89844H118.109V9.75781H115.758ZM115.84 19V10.7969H118.027V19H115.84ZM123.223 19.1367C121.746 19.1367 120.379 18.6719 119.504 17.9062L120.625 16.3477C121.254 16.9219 122.184 17.3047 123.305 17.3047C124.043 17.3047 124.672 17.1133 124.672 16.6758C124.672 16.3203 124.371 16.1289 122.977 15.8008C120.816 15.2812 119.887 14.4883 119.887 13.1758C119.887 11.6445 121.227 10.6602 123.332 10.6602C124.562 10.6602 125.629 11.0156 126.641 11.6719L125.52 13.2578C124.781 12.7109 124.07 12.4648 123.141 12.4648C122.43 12.4648 121.965 12.6836 121.965 13.0938C121.965 13.4766 122.293 13.668 123.469 13.9414C125.875 14.5156 126.777 15.2266 126.777 16.5938C126.777 18.207 125.492 19.1367 123.223 19.1367Z" fill="#231E49"/>
<path d="M51.0469 33.3594H55.5469V35H49.2422V26.0938H51.0469V33.3594ZM57.6328 32.0234C57.7969 33.0781 58.5 33.7109 59.6016 33.7109C60.5156 33.7109 61.1719 33.3594 61.5938 32.8672L62.6484 33.875C62.0156 34.6016 61.0078 35.1172 59.6016 35.1172C57.1875 35.1172 55.9453 33.5703 55.9453 31.4844C55.9453 29.3281 57.3516 27.8516 59.4844 27.8516C61.5703 27.8516 62.9297 29.2812 62.9297 31.4844C62.9297 31.6484 62.9297 31.7891 62.8594 32.0234H57.6328ZM59.4844 29.2109C58.5 29.2109 57.8438 29.7969 57.6562 30.7812H61.2188C61.0312 29.7734 60.3984 29.2109 59.4844 29.2109ZM68.6016 29.375H66.5391V32.7031C66.5391 33.3594 66.8672 33.5703 67.4766 33.5703C67.8984 33.5703 68.2031 33.5469 68.6016 33.4531V34.9531C68.1094 35.0938 67.6172 35.1406 67.1016 35.1406C65.6719 35.1406 64.8516 34.4375 64.8516 33.0781V29.375H63.4453V27.9688H64.8516L65.0391 26.0938H66.5391V27.9688H68.6016V29.375ZM70.1016 26.0938H72.1641V27.8281C72.1641 29.2344 71.4609 29.8906 70.4062 29.8906H70.1016V28.9531H70.3125C70.8516 28.9531 71.0859 28.7188 71.1094 28.1562H70.1016V26.0938ZM76.2188 35.1172C74.9531 35.1172 73.8281 34.7188 73.0781 34.0391L73.9688 32.8438C74.5312 33.3594 75.3047 33.6875 76.2656 33.6875C76.9922 33.6875 77.5547 33.4766 77.5547 33.0312C77.5547 32.6797 77.25 32.4688 76.0078 32.1875C74.1797 31.7422 73.4062 31.0859 73.4062 29.9844C73.4062 28.6953 74.5312 27.8516 76.2891 27.8516C77.2969 27.8516 78.2344 28.1562 79.0547 28.7188L78.1641 29.9609C77.5547 29.4922 76.9219 29.2578 76.1484 29.2578C75.4688 29.2578 75.0234 29.4922 75.0234 29.8906C75.0234 30.2656 75.3281 30.4766 76.4062 30.7344C78.4219 31.2266 79.1719 31.8125 79.1719 32.9609C79.1719 34.3203 78.0703 35.1172 76.2188 35.1172ZM86.7188 35.1172C85.4531 35.1172 84.3281 34.7188 83.5781 34.0391L84.4688 32.8438C85.0312 33.3594 85.8047 33.6875 86.7656 33.6875C87.4922 33.6875 88.0547 33.4766 88.0547 33.0312C88.0547 32.6797 87.75 32.4688 86.5078 32.1875C84.6797 31.7422 83.9062 31.0859 83.9062 29.9844C83.9062 28.6953 85.0312 27.8516 86.7891 27.8516C87.7969 27.8516 88.7344 28.1562 89.5547 28.7188L88.6641 29.9609C88.0547 29.4922 87.4219 29.2578 86.6484 29.2578C85.9688 29.2578 85.5234 29.4922 85.5234 29.8906C85.5234 30.2656 85.8281 30.4766 86.9062 30.7344C88.9219 31.2266 89.6719 31.8125 89.6719 32.9609C89.6719 34.3203 88.5703 35.1172 86.7188 35.1172ZM95.2969 29.375H93.2344V32.7031C93.2344 33.3594 93.5625 33.5703 94.1719 33.5703C94.5938 33.5703 94.8984 33.5469 95.2969 33.4531V34.9531C94.8047 35.0938 94.3125 35.1406 93.7969 35.1406C92.3672 35.1406 91.5469 34.4375 91.5469 33.0781V29.375H90.1406V27.9688H91.5469L91.7344 26.0938H93.2344V27.9688H95.2969V29.375ZM101.555 27.9688H103.242V35H101.742L101.648 33.9688C101.133 34.6719 100.266 35.1172 99.2578 35.1172C97.7578 35.1172 96.7031 34.0391 96.7031 32.4219V27.9688H98.3906V32.0234C98.3906 33.1016 98.9062 33.7109 99.7734 33.7109C100.758 33.7109 101.555 33.0078 101.555 32V27.9688ZM110.039 25.625H111.727V35H110.227L110.133 33.9453C109.594 34.6953 108.773 35.1172 107.789 35.1172C105.961 35.1172 104.766 33.6875 104.766 31.4844C104.766 29.3047 106.008 27.8516 107.789 27.8516C108.727 27.8516 109.5 28.2031 110.039 28.8594V25.625ZM108.305 33.7109C109.43 33.7109 110.109 32.8438 110.109 31.4844C110.109 30.125 109.43 29.2578 108.305 29.2578C107.18 29.2578 106.477 30.125 106.477 31.4844C106.477 32.8438 107.18 33.7109 108.305 33.7109ZM118.734 27.9688H120.492L117.984 35.0938C117.469 36.5703 116.602 37.4609 115.359 37.4609C113.742 37.4609 113.18 36.3828 113.133 35.3047L114.68 35.0234C114.703 35.5859 114.867 35.9844 115.406 35.9844C115.711 35.9844 115.945 35.7969 116.18 35.3984L112.898 27.9688H114.75L117 33.5234L118.734 27.9688ZM122.133 31.8828L121.875 26.0938H123.797L123.539 31.8828H122.133ZM121.805 35V32.9375H123.867V35H121.805Z" fill="#3F3A65"/>
<rect width="40" height="40" rx="5" fill="#152A59"/>
<path d="M25.2874 26.2833C24.9192 26.3551 24.5384 26.3929 24.1487 26.3929C22.4174 26.3929 21.1739 25.8161 20.1117 24.6362C19.3871 23.8313 18.6625 24.5836 18.4555 24.8429L15.1805 28.0462C14.9639 28.2873 14.6255 28.7695 15.0395 29.4929C16.6957 31.1462 19.2001 31.3528 21.5609 31.3528C24.128 31.3528 26.5948 30.4515 27.4611 29.8029C28.2892 29.1829 28.9103 28.2529 28.4963 27.0129C28.0822 25.7729 26.1845 26.0098 25.2874 26.2833Z" fill="#F7F4EC"/>
<path d="M21.6376 9C15.2125 9 9.84491 14.0678 10.0034 20.3147C10.1081 24.4388 11.7851 26.4479 12.8332 27.6111C13.4049 28.2456 14.1753 27.9706 14.5107 27.7168C14.8461 27.4631 16.3122 25.9713 17.5494 24.8617C18.4926 24.0158 18.9122 23.5928 18.8072 22.9583C18.7022 22.3239 18.3878 22.0066 18.3885 20.6319C18.3893 19.2573 19.1645 17.4614 20.4841 16.2964C21.3226 15.5562 22.8741 14.8371 26.5629 15.3447C28.0999 15.5562 29.1837 14.2872 28.9741 13.0183C28.629 10.9296 24.8866 9 21.6376 9Z" fill="#F7F4EC"/>
</svg>
