<svg width="98" height="68" viewBox="0 0 98 68" fill="none" xmlns="http://www.w3.org/2000/svg">
<path d="M25.701 55.0121C25.2747 55.0953 24.8338 55.139 24.3826 55.139C22.3779 55.139 20.938 54.4711 19.7081 53.1049C18.8691 52.173 18.0301 53.0441 17.7904 53.3442L13.9983 57.0534C13.7475 57.3325 13.3556 57.8909 13.8351 58.7284C15.7528 60.6428 18.6526 60.8821 21.3861 60.8821C24.3586 60.8821 27.2149 59.8384 28.218 59.0874C29.1769 58.3695 29.896 57.2926 29.4166 55.8569C28.9372 54.4211 26.7398 54.6954 25.701 55.0121Z" fill="#DB9548"/>
<path d="M21.4751 35C14.0356 35 7.82042 40.868 8.00396 48.1012C8.12514 52.8765 10.067 55.2028 11.2806 56.5497C11.9425 57.2843 12.8346 56.966 13.2229 56.6721C13.6112 56.3783 15.3088 54.651 16.7414 53.3662C17.8336 52.3867 18.3193 51.8969 18.1978 51.1623C18.0763 50.4276 17.7122 50.0603 17.7131 48.4686C17.7139 46.8768 18.6116 44.7974 20.1395 43.4485C21.1103 42.5914 22.9069 41.7588 27.1781 42.3465C28.9578 42.5914 30.2127 41.1221 29.97 39.6528C29.5704 37.2342 25.2371 35 21.4751 35Z" fill="#F2BD71"/>
<path d="M18.8125 29.3125C15.125 29.3125 11.6875 28.125 9.25 25.875L11.5625 22.875C13.5625 24.8125 16.3125 25.875 19.125 25.875C22.375 25.875 24.3125 24.625 24.3125 22.5625C24.3125 20.8125 22.875 20.0625 18.9375 18.9375C14.4375 17.625 10.125 16.25 10.125 11.6875C10.125 7.5625 13.6875 4.9375 19.125 4.9375C22.4375 4.9375 25.25 5.875 27.6875 7.75L25.5 10.75C23.75 9.3125 21.5 8.375 18.875 8.375C15.9375 8.375 14.0625 9.625 14.0625 11.5C14.0625 13.25 15.625 14.125 19.6875 15.1875C25.125 16.5625 28.25 18.25 28.25 22.1875C28.25 26.5625 24.6875 29.3125 18.8125 29.3125ZM47.9375 25.75H48.625V29C48.4375 29.0625 47.9375 29.125 47.3125 29.125C45 29.125 43.9375 28.3125 43.6875 26.125C42.375 28.0625 39.875 29.3125 37.125 29.3125C33.4375 29.3125 31 27.0625 31 23.8125C31 19.1875 35.4375 18.1875 39.0625 17.625C41.875 17.25 43.25 17 43.25 15.5625C43.25 14.0625 41.6875 13.0625 39.3125 13.0625C37.1875 13.0625 35.1875 14 33.6875 15.5625L31.375 13.125C33.5625 11.0625 36.25 9.9375 39.5 9.9375C44 9.9375 46.75 12.25 46.75 16.125V24.5625C46.75 25.375 47.125 25.75 47.9375 25.75ZM37.75 26.25C40.625 26.25 43.125 24.25 43.125 21.875V19.4375C42.4375 19.875 41.3125 20.0625 39.5 20.375C37.125 20.75 34.6875 21.125 34.6875 23.5625C34.6875 25.3125 35.8125 26.25 37.75 26.25ZM62.9375 9.9375C66.9375 9.9375 69.75 12.8125 69.75 17.125V29H66V18.125C66 14.9375 64.4375 13.125 61.875 13.125C58.9375 13.125 56.5625 15.25 56.5625 18.25V29H52.8125V10.25H56.0625L56.3125 13.1875C57.75 11.1875 60.125 9.9375 62.9375 9.9375ZM85.9375 13.4375H80.1875V23.3125C80.1875 25.25 81.0625 25.8125 82.875 25.8125C83.875 25.8125 84.6875 25.75 85.9375 25.4375V28.875C84.6875 29.1875 83.375 29.3125 82.125 29.3125C78.4375 29.3125 76.4375 27.5 76.4375 24.0625V13.4375H72.75V10.25H76.4375L76.9375 5.25H80.1875V10.25H85.9375V13.4375Z" fill="white"/>
<path d="M43.375 44.3203C43.8125 44.3203 44.1953 44.375 44.6328 44.4844V47.6016C43.9219 47.5469 43.1562 47.4922 42.4453 47.4922C39.8203 47.4922 37.8516 49.1875 37.8516 51.8125V61H34.5703V44.5938H37.4141L37.6328 47.2188C38.8359 45.4688 40.9141 44.3203 43.375 44.3203ZM54.0391 61.2734C49.0078 61.2734 45.7266 57.9375 45.7266 52.7969C45.7266 47.7656 49.1172 44.3203 54.0391 44.3203C59.0703 44.3203 62.3516 47.6562 62.3516 52.7969C62.3516 57.8281 58.9609 61.2734 54.0391 61.2734ZM54.0391 58.4844C57.0469 58.4844 59.0156 56.2422 59.0156 52.7969C59.0156 49.3516 57.0469 47.1094 54.0391 47.1094C51.0312 47.1094 49.0625 49.3516 49.0625 52.7969C49.0625 56.2422 51.0312 58.4844 54.0391 58.4844ZM66.3984 42.2969V39.0156H70.0078V42.2969H66.3984ZM66.5625 61V44.5938H69.8438V61H66.5625ZM80.6172 61.2734C77.8281 61.2734 75.3672 60.3984 73.5625 58.7578L75.3672 56.4062C76.7344 57.7188 78.5391 58.4297 80.7266 58.4297C82.8047 58.4297 84.1172 57.7734 84.1172 56.5156C84.1172 55.4766 83.2422 54.875 80.2344 54.1641C75.9688 53.0703 74.2734 51.7031 74.2734 49.1875C74.2734 46.2344 76.8438 44.3203 80.7266 44.3203C83.0234 44.3203 85.1562 45.0312 86.9609 46.3438L85.1016 48.8047C83.7891 47.7109 82.3125 47.1094 80.5625 47.1094C78.7031 47.1094 77.4453 47.8203 77.4453 48.9688C77.4453 50.0078 78.3203 50.5547 81.1094 51.2656C85.5938 52.4141 87.2891 53.7812 87.2891 56.3516C87.2891 59.3594 84.7188 61.2734 80.6172 61.2734Z" fill="white"/>
</svg>
